<?xml version="1.0" encoding="utf-8"?>
<!-- Generator: Adobe Illustrator 24.1.0, SVG Export Plug-In . SVG Version: 6.00 Build 0)  -->
<svg version="1.1" id="Capa_1" xmlns="http://www.w3.org/2000/svg" xmlns:xlink="http://www.w3.org/1999/xlink" x="0px" y="0px"
	 viewBox="0 0 236.7 218.3" style="enable-background:new 0 0 236.7 218.3;" xml:space="preserve">
<style type="text/css">
	.st0{fill:#FDC300;}
	.st1{fill:url(#SVGID_1_);}
	.st2{fill:url(#SVGID_2_);}
	.st3{fill:url(#SVGID_3_);}
	.st4{fill:url(#SVGID_4_);}
	.st5{fill:url(#SVGID_5_);}
	.st6{fill:url(#SVGID_6_);}
	.st7{fill:url(#SVGID_7_);}
	.st8{fill:url(#SVGID_8_);}
	.st9{fill:url(#SVGID_9_);stroke:#666666;stroke-width:0.6048;}
	.st10{fill:url(#SVGID_10_);stroke:#666666;stroke-width:0.6048;}
	.st11{fill:url(#SVGID_11_);stroke:#666666;stroke-width:0.6048;}
	.st12{fill:url(#SVGID_12_);stroke:#666666;stroke-width:0.6048;}
	.st13{fill:url(#SVGID_13_);stroke:#666666;stroke-width:0.6048;}
	.st14{fill:none;}
	.st15{fill:url(#SVGID_14_);}
	.st16{fill:url(#SVGID_15_);}
	.st17{fill:url(#SVGID_16_);}
	.st18{fill:url(#SVGID_17_);}
	.st19{fill:url(#SVGID_18_);}
</style>
<g>
	<path class="st0" d="M6.7,118.3h0.1C6.8,118.3,6.7,118.3,6.7,118.3C6.7,118.3,6.7,118.3,6.7,118.3z"/>
	
		<radialGradient id="SVGID_1_" cx="119.2848" cy="107.8044" r="114.7869" gradientTransform="matrix(1 -5.000000e-04 5.000000e-04 1 0.1305 -9.953333e-02)" gradientUnits="userSpaceOnUse">
		<stop  offset="0" style="stop-color:#FFF59B"/>
		<stop  offset="0.2809" style="stop-color:#FFED00"/>
		<stop  offset="1" style="stop-color:#FBBA00"/>
	</radialGradient>
	<path class="st1" d="M229.8,114.2C229.8,114.2,229.8,114.2,229.8,114.2C229.8,114.1,229.7,114.2,229.8,114.2
		C226.3,55.5,177.7,9,118.2,9C58.2,9.1,9.4,56.3,6.7,115.6c0,0,0.1,0,0.1,0c33,7.1,71,11.1,111.5,11.1c40.5,0,78.4-4.1,111.4-11.2
		c0,0,0.1,0,0.1,0C229.8,115,229.7,114.6,229.8,114.2L229.8,114.2z"/>
	
		<linearGradient id="SVGID_2_" gradientUnits="userSpaceOnUse" x1="118.0398" y1="14.5144" x2="118.0398" y2="122.1084" gradientTransform="matrix(1 -5.000000e-04 5.000000e-04 1 0.1305 -9.953333e-02)">
		<stop  offset="5.618000e-03" style="stop-color:#FFFFFF"/>
		<stop  offset="0.3034" style="stop-color:#FFED00"/>
		<stop  offset="0.6067" style="stop-color:#FEC800"/>
		<stop  offset="1" style="stop-color:#FFE195"/>
	</linearGradient>
	<path class="st2" d="M218.4,85.1c-14.7-41.4-54.2-70.7-100.2-70.7C72,14.4,32.6,43.7,18,85c25.4-19.9,60.9-32.2,100.2-32.2
		C157.4,52.8,193,65.1,218.4,85.1z"/>
	<g>
		
			<radialGradient id="SVGID_3_" cx="117.8324" cy="208.7012" r="82.4632" gradientTransform="matrix(1 -5.000000e-04 5.000000e-04 1 0.1305 -9.953333e-02)" gradientUnits="userSpaceOnUse">
			<stop  offset="0" style="stop-color:#95C23D"/>
			<stop  offset="1" style="stop-color:#00A13A"/>
		</radialGradient>
		<path class="st3" d="M226.9,207c-32.3-3.9-69.3-6.1-108.6-6.1c-39.3,0-76.2,2.3-108.6,6.2c0,0-8,0.4-8,4.4v0.3
			c0,2.3,3,4.2,6.8,4.4c0.3,0,0.5,0,0.8,0l217.6-0.1c0.4,0,0.8,0,1.3-0.1c3.6-0.4,6.3-2.2,6.3-4.4v-0.3
			C234.4,207.8,226.9,207,226.9,207z"/>
		
			<linearGradient id="SVGID_4_" gradientUnits="userSpaceOnUse" x1="118.0521" y1="203.634" x2="118.0521" y2="211.9256" gradientTransform="matrix(1 -5.000000e-04 5.000000e-04 1 0.1305 -9.953333e-02)">
			<stop  offset="0" style="stop-color:#FFFFFF"/>
			<stop  offset="0.4494" style="stop-color:#95C11F"/>
			<stop  offset="1" style="stop-color:#00A13A"/>
		</linearGradient>
		<path class="st4" d="M12.7,212.1l211.2-0.1c-33-4.6-69.2-6.9-105.6-6.9C81.8,205.1,45.7,207.5,12.7,212.1z"/>
	</g>
	<g>
		
			<radialGradient id="SVGID_5_" cx="35.1158" cy="38.1074" r="44.06" gradientTransform="matrix(1 -5.000000e-04 5.000000e-04 1 0.1305 -9.953333e-02)" gradientUnits="userSpaceOnUse">
			<stop  offset="0" style="stop-color:#95C23D"/>
			<stop  offset="1" style="stop-color:#00A13A"/>
		</radialGradient>
		<path class="st5" d="M78.2,2.2c-0.1,0-0.1,0-0.2,0c-0.1,0-0.1,0-0.2,0l-67.3,0c-4.2,0-7.6,3.6-7.5,8.1l0,60.7
			c0,2.2,1.6,3.9,3.7,3.9c1.3,0,2.4-0.7,3-1.7c0.1-0.3,0.3-0.6,0.4-0.8C24.3,42.8,48.8,19.9,78.5,9c0.3-0.1,0.6-0.2,0.9-0.3
			c1-0.6,1.8-1.7,1.8-3.1C81.2,3.8,79.8,2.3,78.2,2.2z"/>
		
			<linearGradient id="SVGID_6_" gradientUnits="userSpaceOnUse" x1="38.4943" y1="3.0022" x2="38.4943" y2="33.2288" gradientTransform="matrix(1 -5.000000e-04 5.000000e-04 1 0.1305 -9.953333e-02)">
			<stop  offset="0" style="stop-color:#FFFFFF"/>
			<stop  offset="0.3539" style="stop-color:#95C11F"/>
			<stop  offset="1" style="stop-color:#00A13A"/>
		</linearGradient>
		<path class="st6" d="M69.9,6.6l-60.1,0c-1.3,0-2.4,1.1-2.4,2.5l0,57.2C21.9,39.8,43.6,19,69.9,6.6z"/>
	</g>
	<g>
		
			<radialGradient id="SVGID_7_" cx="-250.1759" cy="37.9195" r="44.0614" gradientTransform="matrix(-1 5.000000e-04 5.000000e-04 1 -49.2182 0.1147)" gradientUnits="userSpaceOnUse">
			<stop  offset="0" style="stop-color:#95C23D"/>
			<stop  offset="1" style="stop-color:#00A13A"/>
		</radialGradient>
		<path class="st7" d="M158,2.1c0.1,0,0.1,0,0.2,0c0.1,0,0.1,0,0.2,0l67.3,0c4.2,0,7.5,3.6,7.6,8.1l0,60.7c0,2.2-1.6,3.9-3.7,3.9
			c-1.3,0-2.4-0.7-3-1.7c-0.1-0.3-0.3-0.6-0.4-0.8c-14.3-29.7-38.9-52.5-68.6-63.4c-0.3-0.1-0.6-0.2-0.9-0.3c-1-0.6-1.8-1.7-1.8-3.1
			C155.1,3.7,156.4,2.3,158,2.1z"/>
		
			<linearGradient id="SVGID_8_" gradientUnits="userSpaceOnUse" x1="-246.7987" y1="2.8136" x2="-246.7987" y2="33.0408" gradientTransform="matrix(-1 5.000000e-04 5.000000e-04 1 -49.2182 0.1147)">
			<stop  offset="0" style="stop-color:#FFFFFF"/>
			<stop  offset="0.3539" style="stop-color:#95C11F"/>
			<stop  offset="1" style="stop-color:#00A13A"/>
		</linearGradient>
		<path class="st8" d="M166.3,6.6l60.1,0c1.3,0,2.4,1.1,2.4,2.5l0,57.2C214.4,39.7,192.6,18.9,166.3,6.6z"/>
	</g>
	
		<linearGradient id="SVGID_9_" gradientUnits="userSpaceOnUse" x1="22.3629" y1="138.7755" x2="22.3629" y2="189.0596" gradientTransform="matrix(1 -5.000000e-04 5.000000e-04 1 0.1305 -9.953333e-02)">
		<stop  offset="0" style="stop-color:#595959"/>
		<stop  offset="0.2416" style="stop-color:#BFBFBF"/>
		<stop  offset="0.5843" style="stop-color:#595959"/>
		<stop  offset="1" style="stop-color:#B3B3B3"/>
	</linearGradient>
	<path class="st9" d="M3.5,138.7l37.6,0l0,9.3l-26.5,0l0,10.8l24.4,0v8.6l-24.4,0l0,12.3l27.1,0l0,9.3l-38.2,0L3.5,138.7z"/>
	
		<linearGradient id="SVGID_10_" gradientUnits="userSpaceOnUse" x1="70.1439" y1="138.7752" x2="70.1439" y2="189.0588" gradientTransform="matrix(1 -5.000000e-04 5.000000e-04 1 0.1305 -9.953333e-02)">
		<stop  offset="0" style="stop-color:#595959"/>
		<stop  offset="0.2416" style="stop-color:#BFBFBF"/>
		<stop  offset="0.5843" style="stop-color:#595959"/>
		<stop  offset="1" style="stop-color:#B3B3B3"/>
	</linearGradient>
	<path class="st10" d="M49.1,138.7l11,0l21,33.7h0.1l0-33.7l10.3,0l0,50.3l-11.1,0l-20.9-33.7h-0.1l0,33.7l-10.4,0L49.1,138.7z"/>
	
		<linearGradient id="SVGID_11_" gradientUnits="userSpaceOnUse" x1="117.7473" y1="138.7785" x2="117.7473" y2="189.0585" gradientTransform="matrix(1 -5.000000e-04 5.000000e-04 1 0.1305 -9.953333e-02)">
		<stop  offset="0" style="stop-color:#595959"/>
		<stop  offset="0.2416" style="stop-color:#BFBFBF"/>
		<stop  offset="0.5843" style="stop-color:#595959"/>
		<stop  offset="1" style="stop-color:#B3B3B3"/>
	</linearGradient>
	<path class="st11" d="M112.4,147.9l-15.1,0l0-9.3l41.2,0l0,9.3l-15.1,0l0,41l-11.1,0L112.4,147.9z"/>
	
		<linearGradient id="SVGID_12_" gradientUnits="userSpaceOnUse" x1="165.7744" y1="138.7774" x2="165.7744" y2="189.0614" gradientTransform="matrix(1 -5.000000e-04 5.000000e-04 1 0.1305 -9.953333e-02)">
		<stop  offset="0" style="stop-color:#595959"/>
		<stop  offset="0.2416" style="stop-color:#BFBFBF"/>
		<stop  offset="0.5843" style="stop-color:#595959"/>
		<stop  offset="1" style="stop-color:#B3B3B3"/>
	</linearGradient>
	<path class="st12" d="M155.4,147.2l12.1,0c4.9,0,7.6,2.1,7.6,7c0,5.1-2.7,7.2-7.6,7.2l-12.1,0L155.4,147.2z M144.3,188.9l11.1,0
		l0-19.6l11.1,0c5.6,0,7.6,2.3,8.4,7.6c0.6,4,0.4,8.9,1.8,12l11.1,0c-2-2.8-1.9-8.7-2.1-11.9c-0.4-5.1-1.9-10.3-7.3-11.8v-0.1
		c5.6-2.3,8-6.7,8-12.6c0-7.6-5.7-13.9-14.7-13.9l-27.1,0L144.3,188.9z"/>
	
		<linearGradient id="SVGID_13_" gradientUnits="userSpaceOnUse" x1="214.0517" y1="138.7776" x2="214.0517" y2="189.0611" gradientTransform="matrix(1 -5.000000e-04 5.000000e-04 1 0.1305 -9.953333e-02)">
		<stop  offset="0" style="stop-color:#595959"/>
		<stop  offset="0.2416" style="stop-color:#BFBFBF"/>
		<stop  offset="0.5843" style="stop-color:#595959"/>
		<stop  offset="1" style="stop-color:#B3B3B3"/>
	</linearGradient>
	<path class="st13" d="M195.2,138.6l37.6,0l0,9.3l-26.5,0l0,10.8l24.4,0l0,8.6l-24.4,0l0,12.3l27.1,0l0,9.3l-38.2,0L195.2,138.6z"/>
	<path class="st14" d="M172.9,154.2c0-2.9-0.9-4.8-5.4-4.8l-9.9,0l0,9.8l9.9,0C171.5,159.2,172.9,157.8,172.9,154.2z"/>
	
		<linearGradient id="SVGID_14_" gradientUnits="userSpaceOnUse" x1="22.3641" y1="141.0141" x2="22.3641" y2="187.3539" gradientTransform="matrix(1 -5.000000e-04 5.000000e-04 1 0.1305 -9.953333e-02)">
		<stop  offset="0" style="stop-color:#666666"/>
		<stop  offset="0.3539" style="stop-color:#BFBFBF"/>
		<stop  offset="0.6742" style="stop-color:#BFBFBF"/>
		<stop  offset="1" style="stop-color:#666666"/>
	</linearGradient>
	<polygon class="st15" points="14.6,160.9 12.4,160.9 12.4,158.7 12.4,148 12.4,145.8 14.5,145.8 38.9,145.8 38.9,140.8 5.7,140.8 
		5.7,186.8 39.5,186.8 39.5,181.8 14.6,181.8 12.4,181.8 12.4,179.7 12.4,167.3 12.4,165.2 14.6,165.2 36.7,165.1 36.7,160.9 	"/>
	
		<linearGradient id="SVGID_15_" gradientUnits="userSpaceOnUse" x1="70.1436" y1="141.0115" x2="70.1436" y2="187.355" gradientTransform="matrix(1 -5.000000e-04 5.000000e-04 1 0.1305 -9.953333e-02)">
		<stop  offset="0" style="stop-color:#666666"/>
		<stop  offset="0.3539" style="stop-color:#BFBFBF"/>
		<stop  offset="0.6742" style="stop-color:#BFBFBF"/>
		<stop  offset="1" style="stop-color:#666666"/>
	</linearGradient>
	<polygon class="st16" points="57.3,186.8 57.3,155.3 57.3,153.1 59.5,153.1 59.6,153.1 60.8,153.1 61.5,154.1 81.8,186.7 
		89.4,186.7 89.4,140.8 83.4,140.8 83.4,172.4 83.4,174.5 81.2,174.5 81.1,174.5 79.9,174.5 79.3,173.5 58.9,140.8 51.3,140.8 
		51.3,186.8 	"/>
	
		<linearGradient id="SVGID_16_" gradientUnits="userSpaceOnUse" x1="117.7489" y1="141.0143" x2="117.7489" y2="187.3544" gradientTransform="matrix(1 -5.000000e-04 5.000000e-04 1 0.1305 -9.953333e-02)">
		<stop  offset="0" style="stop-color:#666666"/>
		<stop  offset="0.3539" style="stop-color:#BFBFBF"/>
		<stop  offset="0.6742" style="stop-color:#BFBFBF"/>
		<stop  offset="1" style="stop-color:#666666"/>
	</linearGradient>
	<polygon class="st17" points="121.3,147.9 121.3,145.7 123.5,145.7 136.4,145.7 136.4,140.8 99.5,140.8 99.5,145.7 112.4,145.7 
		114.6,145.7 114.6,147.9 114.6,186.7 121.3,186.7 	"/>
	
		<linearGradient id="SVGID_17_" gradientUnits="userSpaceOnUse" x1="165.2355" y1="141.016" x2="165.2355" y2="187.3564" gradientTransform="matrix(1 -5.000000e-04 5.000000e-04 1 0.1305 -9.953333e-02)">
		<stop  offset="0" style="stop-color:#666666"/>
		<stop  offset="0.3539" style="stop-color:#BFBFBF"/>
		<stop  offset="0.6742" style="stop-color:#BFBFBF"/>
		<stop  offset="1" style="stop-color:#666666"/>
	</linearGradient>
	<path class="st18" d="M153.2,186.7l0-17.5l0-2.2l2.2,0l11.1,0c6.4,0,9.6,2.8,10.5,9.5c0.2,1.4,0.3,2.8,0.4,4.2
		c0.2,2.1,0.3,4.3,0.8,6l6.2,0c-0.7-2.6-0.8-5.6-0.9-7.9c0-0.6-0.1-1.2-0.1-1.6c-0.5-7.6-3.5-9.2-5.7-9.8l-1.6-0.4v-1.7v-0.1l0-1.5
		l1.4-0.6c4.4-1.8,6.6-5.3,6.6-10.6c0-6.9-5.2-11.7-12.5-11.7l-24.9,0l0,45.9L153.2,186.7z M153.2,161.3l0-14.2V145l2.2,0l12.1,0
		c6.3,0,9.8,3.2,9.8,9.1c0,6-3.5,9.4-9.8,9.4l-12.1,0l-2.2,0V161.3z"/>
	
		<linearGradient id="SVGID_18_" gradientUnits="userSpaceOnUse" x1="214.0482" y1="141.0161" x2="214.0482" y2="187.3554" gradientTransform="matrix(1 -5.000000e-04 5.000000e-04 1 0.1305 -9.953333e-02)">
		<stop  offset="0" style="stop-color:#666666"/>
		<stop  offset="0.3539" style="stop-color:#BFBFBF"/>
		<stop  offset="0.6742" style="stop-color:#BFBFBF"/>
		<stop  offset="1" style="stop-color:#666666"/>
	</linearGradient>
	<polygon class="st19" points="206.2,160.8 204.1,160.8 204.1,158.6 204.1,147.9 204,145.7 206.2,145.7 230.6,145.7 230.6,140.7 
		197.3,140.8 197.4,186.7 231.2,186.7 231.2,181.7 206.2,181.7 204.1,181.7 204.1,179.6 204.1,167.2 204.1,165.1 206.2,165.1 
		228.4,165 228.4,160.8 	"/>
</g>
</svg>
